<svg width="499" height="369" viewBox="0 0 499 369" fill="none" xmlns="http://www.w3.org/2000/svg">
<g clip-path="url(#clip0)">
<rect x="69" width="430" height="369" rx="14" fill="url(#paint0_linear)"/>
<g clip-path="url(#clip1)">
<g filter="url(#filter0_d)">
<rect x="36" y="240" width="425" height="65" rx="14" fill="#423E77"/>
</g>
<rect x="54" y="254" width="80" height="38" rx="8" fill="url(#paint1_linear)"/>
<rect x="142" y="254" width="44" height="38" rx="8" fill="url(#paint2_linear)"/>
<rect x="194" y="254" width="74" height="38" rx="8" fill="url(#paint3_linear)"/>
<rect x="298" y="254" width="69" height="38" rx="8" fill="#6EB3D6"/>
<rect x="375" y="254" width="69" height="38" rx="8" fill="#9E8CFF"/>
<path d="M73.5043 274.24V272.812H75.3163V271H76.7443V272.812H78.5443V274.24H76.7443V276.052H75.3163V274.24H73.5043ZM81.5105 271V277.456C81.5105 278.16 81.2985 278.696 80.8745 279.064C80.4505 279.44 79.9185 279.628 79.2785 279.628C78.9905 279.628 78.7665 279.612 78.6065 279.58V278.176C78.7185 278.192 78.8225 278.2 78.9185 278.2C79.5505 278.2 79.8665 277.864 79.8665 277.192V271H81.5105ZM80.6825 270.016C80.4025 270.016 80.1585 269.916 79.9505 269.716C79.7425 269.508 79.6385 269.26 79.6385 268.972C79.6385 268.684 79.7425 268.44 79.9505 268.24C80.1585 268.032 80.4025 267.928 80.6825 267.928C80.9785 267.928 81.2265 268.032 81.4265 268.24C81.6345 268.44 81.7385 268.684 81.7385 268.972C81.7385 269.26 81.6345 269.508 81.4265 269.716C81.2265 269.916 80.9785 270.016 80.6825 270.016ZM88.0906 276.232C87.4746 276.832 86.7306 277.132 85.8586 277.132C84.9866 277.132 84.2426 276.832 83.6266 276.232C83.0106 275.624 82.7026 274.88 82.7026 274C82.7026 273.128 83.0106 272.388 83.6266 271.78C84.2426 271.172 84.9866 270.868 85.8586 270.868C86.7306 270.868 87.4746 271.172 88.0906 271.78C88.7066 272.388 89.0146 273.128 89.0146 274C89.0146 274.88 88.7066 275.624 88.0906 276.232ZM85.8586 275.596C86.2826 275.596 86.6346 275.448 86.9146 275.152C87.2026 274.848 87.3466 274.464 87.3466 274C87.3466 273.536 87.2026 273.156 86.9146 272.86C86.6346 272.556 86.2826 272.404 85.8586 272.404C85.4266 272.404 85.0666 272.556 84.7786 272.86C84.4986 273.156 84.3586 273.536 84.3586 274C84.3586 274.464 84.4986 274.848 84.7786 275.152C85.0666 275.448 85.4266 275.596 85.8586 275.596ZM90.2002 277V271H91.8442V271.96C91.9482 271.664 92.1362 271.42 92.4082 271.228C92.6882 271.028 92.9962 270.928 93.3322 270.928C93.5402 270.928 93.7242 270.952 93.8842 271V272.668C93.6202 272.58 93.3722 272.536 93.1402 272.536C92.7482 272.536 92.4322 272.68 92.1922 272.968C91.9602 273.248 91.8442 273.636 91.8442 274.132V277H90.2002ZM97.1596 277.132C96.3676 277.132 95.6996 276.824 95.1556 276.208C94.6116 275.592 94.3396 274.856 94.3396 274C94.3396 273.144 94.6116 272.408 95.1556 271.792C95.6996 271.176 96.3676 270.868 97.1596 270.868C97.5436 270.868 97.8876 270.948 98.1916 271.108C98.4956 271.268 98.7276 271.456 98.8876 271.672V268H100.532V277H98.8876V276.328C98.7276 276.544 98.4956 276.732 98.1916 276.892C97.8876 277.052 97.5436 277.132 97.1596 277.132ZM96.4036 275.176C96.6836 275.48 97.0516 275.632 97.5076 275.632C97.9636 275.632 98.3276 275.48 98.5996 275.176C98.8796 274.872 99.0196 274.48 99.0196 274C99.0196 273.52 98.8796 273.128 98.5996 272.824C98.3276 272.52 97.9636 272.368 97.5076 272.368C97.0516 272.368 96.6836 272.52 96.4036 272.824C96.1316 273.128 95.9956 273.52 95.9956 274C95.9956 274.48 96.1316 274.872 96.4036 275.176ZM104.566 277.132C103.774 277.132 103.106 276.824 102.562 276.208C102.018 275.592 101.746 274.856 101.746 274C101.746 273.144 102.018 272.408 102.562 271.792C103.106 271.176 103.774 270.868 104.566 270.868C104.95 270.868 105.294 270.948 105.598 271.108C105.902 271.268 106.134 271.456 106.294 271.672V271H107.938V277H106.294V276.328C106.134 276.544 105.902 276.732 105.598 276.892C105.294 277.052 104.95 277.132 104.566 277.132ZM103.81 275.176C104.09 275.48 104.458 275.632 104.914 275.632C105.37 275.632 105.734 275.48 106.006 275.176C106.286 274.872 106.426 274.48 106.426 274C106.426 273.52 106.286 273.128 106.006 272.824C105.734 272.52 105.37 272.368 104.914 272.368C104.458 272.368 104.09 272.52 103.81 272.824C103.538 273.128 103.402 273.52 103.402 274C103.402 274.48 103.538 274.872 103.81 275.176ZM109.536 277V271H111.18V271.684C111.548 271.14 112.12 270.868 112.896 270.868C113.616 270.868 114.18 271.108 114.588 271.588C115.004 272.06 115.212 272.692 115.212 273.484V277H113.568V273.76C113.568 273.32 113.476 272.98 113.292 272.74C113.108 272.492 112.848 272.368 112.512 272.368C112.112 272.368 111.788 272.512 111.54 272.8C111.3 273.088 111.18 273.512 111.18 274.072V277H109.536Z" fill="white"/>
<path d="M321.937 277L320.065 272.476L318.193 277H316.561L314.509 268.48H316.357L317.653 274.144L320.065 268.336L322.477 274.144L323.773 268.48H325.621L323.569 277H321.937ZM326.265 277V271H327.909V271.96C328.013 271.664 328.201 271.42 328.473 271.228C328.753 271.028 329.061 270.928 329.397 270.928C329.605 270.928 329.789 270.952 329.949 271V272.668C329.685 272.58 329.437 272.536 329.205 272.536C328.813 272.536 328.497 272.68 328.257 272.968C328.025 273.248 327.909 273.636 327.909 274.132V277H326.265ZM333.224 277.132C332.432 277.132 331.764 276.824 331.22 276.208C330.676 275.592 330.404 274.856 330.404 274C330.404 273.144 330.676 272.408 331.22 271.792C331.764 271.176 332.432 270.868 333.224 270.868C333.608 270.868 333.952 270.948 334.256 271.108C334.56 271.268 334.792 271.456 334.952 271.672V271H336.596V277H334.952V276.328C334.792 276.544 334.56 276.732 334.256 276.892C333.952 277.052 333.608 277.132 333.224 277.132ZM332.468 275.176C332.748 275.48 333.116 275.632 333.572 275.632C334.028 275.632 334.392 275.48 334.664 275.176C334.944 274.872 335.084 274.48 335.084 274C335.084 273.52 334.944 273.128 334.664 272.824C334.392 272.52 334.028 272.368 333.572 272.368C333.116 272.368 332.748 272.52 332.468 272.824C332.196 273.128 332.06 273.52 332.06 274C332.06 274.48 332.196 274.872 332.468 275.176ZM341.098 277.072C340.426 277.072 339.874 276.888 339.442 276.52C339.018 276.144 338.806 275.604 338.806 274.9V272.44H337.594V271H338.806V269.332H340.45V271H342.142V272.44H340.45V274.576C340.45 274.944 340.53 275.208 340.69 275.368C340.85 275.52 341.11 275.596 341.47 275.596C341.726 275.596 341.95 275.56 342.142 275.488V276.94C341.854 277.028 341.506 277.072 341.098 277.072ZM344.959 277H343.315V268H344.959V271.684C345.327 271.14 345.899 270.868 346.675 270.868C347.395 270.868 347.959 271.108 348.367 271.588C348.783 272.06 348.991 272.692 348.991 273.484V277H347.347V273.76C347.347 273.32 347.255 272.98 347.071 272.74C346.887 272.492 346.627 272.368 346.291 272.368C345.891 272.368 345.567 272.512 345.319 272.8C345.079 273.088 344.959 273.512 344.959 274.072V277Z" fill="white"/>
<path d="M399.09 269.308C399.658 269.852 399.942 270.532 399.942 271.348C399.942 272.164 399.658 272.848 399.09 273.4C398.522 273.944 397.81 274.216 396.954 274.216H395.862V277H394.122V268.48H396.954C397.81 268.48 398.522 268.756 399.09 269.308ZM397.89 272.236C398.13 272.004 398.25 271.708 398.25 271.348C398.25 270.988 398.13 270.692 397.89 270.46C397.65 270.228 397.33 270.112 396.93 270.112H395.862V272.584H396.93C397.33 272.584 397.65 272.468 397.89 272.236ZM400.938 277V271H402.582V271.96C402.686 271.664 402.874 271.42 403.146 271.228C403.426 271.028 403.734 270.928 404.07 270.928C404.278 270.928 404.462 270.952 404.622 271V272.668C404.358 272.58 404.11 272.536 403.878 272.536C403.486 272.536 403.17 272.68 402.93 272.968C402.698 273.248 402.582 273.636 402.582 274.132V277H400.938ZM406.489 270.016C406.209 270.016 405.965 269.916 405.757 269.716C405.549 269.508 405.445 269.26 405.445 268.972C405.445 268.684 405.549 268.44 405.757 268.24C405.965 268.032 406.209 267.928 406.489 267.928C406.785 267.928 407.033 268.032 407.233 268.24C407.441 268.44 407.545 268.684 407.545 268.972C407.545 269.26 407.441 269.508 407.233 269.716C407.033 269.916 406.785 270.016 406.489 270.016ZM405.673 277V271H407.317V277H405.673ZM411.212 277.132C410.444 277.132 409.808 276.94 409.304 276.556C408.8 276.172 408.532 275.684 408.5 275.092H410.216C410.248 275.348 410.36 275.544 410.552 275.68C410.744 275.808 410.98 275.872 411.26 275.872C411.78 275.872 412.04 275.712 412.04 275.392C412.04 275.232 411.98 275.112 411.86 275.032C411.748 274.944 411.556 274.864 411.284 274.792L410.156 274.504C409.644 274.368 409.26 274.14 409.004 273.82C408.756 273.492 408.632 273.1 408.632 272.644C408.632 272.124 408.848 271.7 409.28 271.372C409.72 271.036 410.308 270.868 411.044 270.868C411.716 270.868 412.276 271.04 412.724 271.384C413.172 271.72 413.42 272.18 413.468 272.764H411.812C411.74 272.356 411.476 272.152 411.02 272.152C410.804 272.152 410.632 272.192 410.504 272.272C410.376 272.352 410.312 272.464 410.312 272.608C410.312 272.872 410.54 273.056 410.996 273.16L412.052 273.448C412.636 273.592 413.06 273.82 413.324 274.132C413.588 274.436 413.72 274.828 413.72 275.308C413.72 275.86 413.484 276.304 413.012 276.64C412.548 276.968 411.948 277.132 411.212 277.132ZM422.467 277V273.796C422.467 272.844 422.155 272.368 421.531 272.368C421.171 272.368 420.883 272.504 420.667 272.776C420.459 273.048 420.347 273.452 420.331 273.988V277H418.687V273.796C418.687 272.844 418.375 272.368 417.751 272.368C417.383 272.368 417.091 272.512 416.875 272.8C416.659 273.088 416.551 273.512 416.551 274.072V277H414.907V271H416.551V271.684C416.927 271.14 417.459 270.868 418.147 270.868C418.987 270.868 419.607 271.236 420.007 271.972C420.183 271.628 420.447 271.36 420.799 271.168C421.151 270.968 421.507 270.868 421.867 270.868C422.579 270.868 423.131 271.104 423.523 271.576C423.915 272.048 424.111 272.696 424.111 273.52V277H422.467Z" fill="white"/>
<path d="M158.922 274.24V272.812H160.734V271H162.162V272.812H163.962V274.24H162.162V276.052H160.734V274.24H158.922ZM165.916 277V270.1H164.116L165.316 268.48H167.56V277H165.916Z" fill="white"/>
<path d="M208.797 274.24V272.812H210.609V271H212.037V272.812H213.837V274.24H212.037V276.052H210.609V274.24H208.797ZM222.623 277V273.796C222.623 272.844 222.311 272.368 221.687 272.368C221.327 272.368 221.039 272.504 220.823 272.776C220.615 273.048 220.503 273.452 220.487 273.988V277H218.843V273.796C218.843 272.844 218.531 272.368 217.907 272.368C217.539 272.368 217.247 272.512 217.031 272.8C216.815 273.088 216.707 273.512 216.707 274.072V277H215.063V271H216.707V271.684C217.083 271.14 217.615 270.868 218.303 270.868C219.143 270.868 219.763 271.236 220.163 271.972C220.339 271.628 220.603 271.36 220.955 271.168C221.307 270.968 221.663 270.868 222.023 270.868C222.735 270.868 223.287 271.104 223.679 271.576C224.071 272.048 224.267 272.696 224.267 273.52V277H222.623ZM230.766 276.232C230.15 276.832 229.406 277.132 228.534 277.132C227.662 277.132 226.918 276.832 226.302 276.232C225.686 275.624 225.378 274.88 225.378 274C225.378 273.128 225.686 272.388 226.302 271.78C226.918 271.172 227.662 270.868 228.534 270.868C229.406 270.868 230.15 271.172 230.766 271.78C231.382 272.388 231.69 273.128 231.69 274C231.69 274.88 231.382 275.624 230.766 276.232ZM228.534 275.596C228.958 275.596 229.31 275.448 229.59 275.152C229.878 274.848 230.022 274.464 230.022 274C230.022 273.536 229.878 273.156 229.59 272.86C229.31 272.556 228.958 272.404 228.534 272.404C228.102 272.404 227.742 272.556 227.454 272.86C227.174 273.156 227.034 273.536 227.034 274C227.034 274.464 227.174 274.848 227.454 275.152C227.742 275.448 228.102 275.596 228.534 275.596ZM235.648 277.132C234.744 277.132 233.992 276.832 233.392 276.232C232.792 275.624 232.492 274.88 232.492 274C232.492 273.12 232.792 272.38 233.392 271.78C233.992 271.172 234.744 270.868 235.648 270.868C236.448 270.868 237.116 271.092 237.652 271.54C238.196 271.988 238.552 272.572 238.72 273.292H237.016C236.752 272.668 236.296 272.356 235.648 272.356C235.208 272.356 234.848 272.508 234.568 272.812C234.288 273.108 234.148 273.504 234.148 274C234.148 274.496 234.288 274.896 234.568 275.2C234.848 275.496 235.208 275.644 235.648 275.644C236.296 275.644 236.752 275.332 237.016 274.708H238.72C238.552 275.428 238.196 276.012 237.652 276.46C237.116 276.908 236.448 277.132 235.648 277.132ZM241.481 277H239.837V268H241.481V271.684C241.849 271.14 242.421 270.868 243.197 270.868C243.917 270.868 244.481 271.108 244.889 271.588C245.305 272.06 245.513 272.692 245.513 273.484V277H243.869V273.76C243.869 273.32 243.777 272.98 243.593 272.74C243.409 272.492 243.149 272.368 242.813 272.368C242.413 272.368 242.089 272.512 241.841 272.8C241.601 273.088 241.481 273.512 241.481 274.072V277ZM249.457 277.132C248.665 277.132 247.997 276.824 247.453 276.208C246.909 275.592 246.637 274.856 246.637 274C246.637 273.144 246.909 272.408 247.453 271.792C247.997 271.176 248.665 270.868 249.457 270.868C249.841 270.868 250.185 270.948 250.489 271.108C250.793 271.268 251.025 271.456 251.185 271.672V271H252.829V277H251.185V276.328C251.025 276.544 250.793 276.732 250.489 276.892C250.185 277.052 249.841 277.132 249.457 277.132ZM248.701 275.176C248.981 275.48 249.349 275.632 249.805 275.632C250.261 275.632 250.625 275.48 250.897 275.176C251.177 274.872 251.317 274.48 251.317 274C251.317 273.52 251.177 273.128 250.897 272.824C250.625 272.52 250.261 272.368 249.805 272.368C249.349 272.368 248.981 272.52 248.701 272.824C248.429 273.128 248.293 273.52 248.293 274C248.293 274.48 248.429 274.872 248.701 275.176Z" fill="white"/>
</g>
<g filter="url(#filter1_d)">
<rect x="36" y="76" width="425" height="65" rx="14" fill="#423E77"/>
</g>
<rect x="54" y="90" width="80" height="38" rx="8" fill="url(#paint4_linear)"/>
<rect x="142" y="90" width="44" height="38" rx="8" fill="url(#paint5_linear)"/>
<rect x="298" y="90" width="69" height="38" rx="8" fill="#6EB3D6"/>
<rect x="375" y="90" width="69" height="38" rx="8" fill="#9E8CFF"/>
<path d="M73.5043 110.24V108.812H75.3163V107H76.7443V108.812H78.5443V110.24H76.7443V112.052H75.3163V110.24H73.5043ZM81.5105 107V113.456C81.5105 114.16 81.2985 114.696 80.8745 115.064C80.4505 115.44 79.9185 115.628 79.2785 115.628C78.9905 115.628 78.7665 115.612 78.6065 115.58V114.176C78.7185 114.192 78.8225 114.2 78.9185 114.2C79.5505 114.2 79.8665 113.864 79.8665 113.192V107H81.5105ZM80.6825 106.016C80.4025 106.016 80.1585 105.916 79.9505 105.716C79.7425 105.508 79.6385 105.26 79.6385 104.972C79.6385 104.684 79.7425 104.44 79.9505 104.24C80.1585 104.032 80.4025 103.928 80.6825 103.928C80.9785 103.928 81.2265 104.032 81.4265 104.24C81.6345 104.44 81.7385 104.684 81.7385 104.972C81.7385 105.26 81.6345 105.508 81.4265 105.716C81.2265 105.916 80.9785 106.016 80.6825 106.016ZM88.0906 112.232C87.4746 112.832 86.7306 113.132 85.8586 113.132C84.9866 113.132 84.2426 112.832 83.6266 112.232C83.0106 111.624 82.7026 110.88 82.7026 110C82.7026 109.128 83.0106 108.388 83.6266 107.78C84.2426 107.172 84.9866 106.868 85.8586 106.868C86.7306 106.868 87.4746 107.172 88.0906 107.78C88.7066 108.388 89.0146 109.128 89.0146 110C89.0146 110.88 88.7066 111.624 88.0906 112.232ZM85.8586 111.596C86.2826 111.596 86.6346 111.448 86.9146 111.152C87.2026 110.848 87.3466 110.464 87.3466 110C87.3466 109.536 87.2026 109.156 86.9146 108.86C86.6346 108.556 86.2826 108.404 85.8586 108.404C85.4266 108.404 85.0666 108.556 84.7786 108.86C84.4986 109.156 84.3586 109.536 84.3586 110C84.3586 110.464 84.4986 110.848 84.7786 111.152C85.0666 111.448 85.4266 111.596 85.8586 111.596ZM90.2002 113V107H91.8442V107.96C91.9482 107.664 92.1362 107.42 92.4082 107.228C92.6882 107.028 92.9962 106.928 93.3322 106.928C93.5402 106.928 93.7242 106.952 93.8842 107V108.668C93.6202 108.58 93.3722 108.536 93.1402 108.536C92.7482 108.536 92.4322 108.68 92.1922 108.968C91.9602 109.248 91.8442 109.636 91.8442 110.132V113H90.2002ZM97.1596 113.132C96.3676 113.132 95.6996 112.824 95.1556 112.208C94.6116 111.592 94.3396 110.856 94.3396 110C94.3396 109.144 94.6116 108.408 95.1556 107.792C95.6996 107.176 96.3676 106.868 97.1596 106.868C97.5436 106.868 97.8876 106.948 98.1916 107.108C98.4956 107.268 98.7276 107.456 98.8876 107.672V104H100.532V113H98.8876V112.328C98.7276 112.544 98.4956 112.732 98.1916 112.892C97.8876 113.052 97.5436 113.132 97.1596 113.132ZM96.4036 111.176C96.6836 111.48 97.0516 111.632 97.5076 111.632C97.9636 111.632 98.3276 111.48 98.5996 111.176C98.8796 110.872 99.0196 110.48 99.0196 110C99.0196 109.52 98.8796 109.128 98.5996 108.824C98.3276 108.52 97.9636 108.368 97.5076 108.368C97.0516 108.368 96.6836 108.52 96.4036 108.824C96.1316 109.128 95.9956 109.52 95.9956 110C95.9956 110.48 96.1316 110.872 96.4036 111.176ZM104.566 113.132C103.774 113.132 103.106 112.824 102.562 112.208C102.018 111.592 101.746 110.856 101.746 110C101.746 109.144 102.018 108.408 102.562 107.792C103.106 107.176 103.774 106.868 104.566 106.868C104.95 106.868 105.294 106.948 105.598 107.108C105.902 107.268 106.134 107.456 106.294 107.672V107H107.938V113H106.294V112.328C106.134 112.544 105.902 112.732 105.598 112.892C105.294 113.052 104.95 113.132 104.566 113.132ZM103.81 111.176C104.09 111.48 104.458 111.632 104.914 111.632C105.37 111.632 105.734 111.48 106.006 111.176C106.286 110.872 106.426 110.48 106.426 110C106.426 109.52 106.286 109.128 106.006 108.824C105.734 108.52 105.37 108.368 104.914 108.368C104.458 108.368 104.09 108.52 103.81 108.824C103.538 109.128 103.402 109.52 103.402 110C103.402 110.48 103.538 110.872 103.81 111.176ZM109.536 113V107H111.18V107.684C111.548 107.14 112.12 106.868 112.896 106.868C113.616 106.868 114.18 107.108 114.588 107.588C115.004 108.06 115.212 108.692 115.212 109.484V113H113.568V109.76C113.568 109.32 113.476 108.98 113.292 108.74C113.108 108.492 112.848 108.368 112.512 108.368C112.112 108.368 111.788 108.512 111.54 108.8C111.3 109.088 111.18 109.512 111.18 110.072V113H109.536Z" fill="white"/>
<path d="M321.937 113L320.065 108.476L318.193 113H316.561L314.509 104.48H316.357L317.653 110.144L320.065 104.336L322.477 110.144L323.773 104.48H325.621L323.569 113H321.937ZM326.265 113V107H327.909V107.96C328.013 107.664 328.201 107.42 328.473 107.228C328.753 107.028 329.061 106.928 329.397 106.928C329.605 106.928 329.789 106.952 329.949 107V108.668C329.685 108.58 329.437 108.536 329.205 108.536C328.813 108.536 328.497 108.68 328.257 108.968C328.025 109.248 327.909 109.636 327.909 110.132V113H326.265ZM333.224 113.132C332.432 113.132 331.764 112.824 331.22 112.208C330.676 111.592 330.404 110.856 330.404 110C330.404 109.144 330.676 108.408 331.22 107.792C331.764 107.176 332.432 106.868 333.224 106.868C333.608 106.868 333.952 106.948 334.256 107.108C334.56 107.268 334.792 107.456 334.952 107.672V107H336.596V113H334.952V112.328C334.792 112.544 334.56 112.732 334.256 112.892C333.952 113.052 333.608 113.132 333.224 113.132ZM332.468 111.176C332.748 111.48 333.116 111.632 333.572 111.632C334.028 111.632 334.392 111.48 334.664 111.176C334.944 110.872 335.084 110.48 335.084 110C335.084 109.52 334.944 109.128 334.664 108.824C334.392 108.52 334.028 108.368 333.572 108.368C333.116 108.368 332.748 108.52 332.468 108.824C332.196 109.128 332.06 109.52 332.06 110C332.06 110.48 332.196 110.872 332.468 111.176ZM341.098 113.072C340.426 113.072 339.874 112.888 339.442 112.52C339.018 112.144 338.806 111.604 338.806 110.9V108.44H337.594V107H338.806V105.332H340.45V107H342.142V108.44H340.45V110.576C340.45 110.944 340.53 111.208 340.69 111.368C340.85 111.52 341.11 111.596 341.47 111.596C341.726 111.596 341.95 111.56 342.142 111.488V112.94C341.854 113.028 341.506 113.072 341.098 113.072ZM344.959 113H343.315V104H344.959V107.684C345.327 107.14 345.899 106.868 346.675 106.868C347.395 106.868 347.959 107.108 348.367 107.588C348.783 108.06 348.991 108.692 348.991 109.484V113H347.347V109.76C347.347 109.32 347.255 108.98 347.071 108.74C346.887 108.492 346.627 108.368 346.291 108.368C345.891 108.368 345.567 108.512 345.319 108.8C345.079 109.088 344.959 109.512 344.959 110.072V113Z" fill="white"/>
<path d="M399.09 105.308C399.658 105.852 399.942 106.532 399.942 107.348C399.942 108.164 399.658 108.848 399.09 109.4C398.522 109.944 397.81 110.216 396.954 110.216H395.862V113H394.122V104.48H396.954C397.81 104.48 398.522 104.756 399.09 105.308ZM397.89 108.236C398.13 108.004 398.25 107.708 398.25 107.348C398.25 106.988 398.13 106.692 397.89 106.46C397.65 106.228 397.33 106.112 396.93 106.112H395.862V108.584H396.93C397.33 108.584 397.65 108.468 397.89 108.236ZM400.938 113V107H402.582V107.96C402.686 107.664 402.874 107.42 403.146 107.228C403.426 107.028 403.734 106.928 404.07 106.928C404.278 106.928 404.462 106.952 404.622 107V108.668C404.358 108.58 404.11 108.536 403.878 108.536C403.486 108.536 403.17 108.68 402.93 108.968C402.698 109.248 402.582 109.636 402.582 110.132V113H400.938ZM406.489 106.016C406.209 106.016 405.965 105.916 405.757 105.716C405.549 105.508 405.445 105.26 405.445 104.972C405.445 104.684 405.549 104.44 405.757 104.24C405.965 104.032 406.209 103.928 406.489 103.928C406.785 103.928 407.033 104.032 407.233 104.24C407.441 104.44 407.545 104.684 407.545 104.972C407.545 105.26 407.441 105.508 407.233 105.716C407.033 105.916 406.785 106.016 406.489 106.016ZM405.673 113V107H407.317V113H405.673ZM411.212 113.132C410.444 113.132 409.808 112.94 409.304 112.556C408.8 112.172 408.532 111.684 408.5 111.092H410.216C410.248 111.348 410.36 111.544 410.552 111.68C410.744 111.808 410.98 111.872 411.26 111.872C411.78 111.872 412.04 111.712 412.04 111.392C412.04 111.232 411.98 111.112 411.86 111.032C411.748 110.944 411.556 110.864 411.284 110.792L410.156 110.504C409.644 110.368 409.26 110.14 409.004 109.82C408.756 109.492 408.632 109.1 408.632 108.644C408.632 108.124 408.848 107.7 409.28 107.372C409.72 107.036 410.308 106.868 411.044 106.868C411.716 106.868 412.276 107.04 412.724 107.384C413.172 107.72 413.42 108.18 413.468 108.764H411.812C411.74 108.356 411.476 108.152 411.02 108.152C410.804 108.152 410.632 108.192 410.504 108.272C410.376 108.352 410.312 108.464 410.312 108.608C410.312 108.872 410.54 109.056 410.996 109.16L412.052 109.448C412.636 109.592 413.06 109.82 413.324 110.132C413.588 110.436 413.72 110.828 413.72 111.308C413.72 111.86 413.484 112.304 413.012 112.64C412.548 112.968 411.948 113.132 411.212 113.132ZM422.467 113V109.796C422.467 108.844 422.155 108.368 421.531 108.368C421.171 108.368 420.883 108.504 420.667 108.776C420.459 109.048 420.347 109.452 420.331 109.988V113H418.687V109.796C418.687 108.844 418.375 108.368 417.751 108.368C417.383 108.368 417.091 108.512 416.875 108.8C416.659 109.088 416.551 109.512 416.551 110.072V113H414.907V107H416.551V107.684C416.927 107.14 417.459 106.868 418.147 106.868C418.987 106.868 419.607 107.236 420.007 107.972C420.183 107.628 420.447 107.36 420.799 107.168C421.151 106.968 421.507 106.868 421.867 106.868C422.579 106.868 423.131 107.104 423.523 107.576C423.915 108.048 424.111 108.696 424.111 109.52V113H422.467Z" fill="white"/>
<path d="M158.922 110.24V108.812H160.734V107H162.162V108.812H163.962V110.24H162.162V112.052H160.734V110.24H158.922ZM165.916 113V106.1H164.116L165.316 104.48H167.56V113H165.916Z" fill="white"/>
<circle cx="101" cy="29" r="7" fill="#ED6B5F"/>
<circle cx="122" cy="29" r="7" fill="#F6C050"/>
<circle cx="143" cy="29" r="7" fill="#62C555"/>
<g clip-path="url(#clip2)">
<g filter="url(#filter2_d)">
<rect y="158" width="425" height="65" rx="14" fill="#423E77"/>
</g>
<rect x="18" y="172" width="80" height="38" rx="8" fill="url(#paint6_linear)"/>
<rect x="106" y="172" width="44" height="38" rx="8" fill="url(#paint7_linear)"/>
<rect x="158" y="172" width="59" height="38" rx="8" fill="url(#paint8_linear)"/>
<rect x="262" y="172" width="69" height="38" rx="8" fill="#6EB3D6"/>
<rect x="339" y="172" width="69" height="38" rx="8" fill="#9E8CFF"/>
<path d="M37.5043 192.24V190.812H39.3163V189H40.7443V190.812H42.5443V192.24H40.7443V194.052H39.3163V192.24H37.5043ZM45.5105 189V195.456C45.5105 196.16 45.2985 196.696 44.8745 197.064C44.4505 197.44 43.9185 197.628 43.2785 197.628C42.9905 197.628 42.7665 197.612 42.6065 197.58V196.176C42.7185 196.192 42.8225 196.2 42.9185 196.2C43.5505 196.2 43.8665 195.864 43.8665 195.192V189H45.5105ZM44.6825 188.016C44.4025 188.016 44.1585 187.916 43.9505 187.716C43.7425 187.508 43.6385 187.26 43.6385 186.972C43.6385 186.684 43.7425 186.44 43.9505 186.24C44.1585 186.032 44.4025 185.928 44.6825 185.928C44.9785 185.928 45.2265 186.032 45.4265 186.24C45.6345 186.44 45.7385 186.684 45.7385 186.972C45.7385 187.26 45.6345 187.508 45.4265 187.716C45.2265 187.916 44.9785 188.016 44.6825 188.016ZM52.0906 194.232C51.4746 194.832 50.7306 195.132 49.8586 195.132C48.9866 195.132 48.2426 194.832 47.6266 194.232C47.0106 193.624 46.7026 192.88 46.7026 192C46.7026 191.128 47.0106 190.388 47.6266 189.78C48.2426 189.172 48.9866 188.868 49.8586 188.868C50.7306 188.868 51.4746 189.172 52.0906 189.78C52.7066 190.388 53.0146 191.128 53.0146 192C53.0146 192.88 52.7066 193.624 52.0906 194.232ZM49.8586 193.596C50.2826 193.596 50.6346 193.448 50.9146 193.152C51.2026 192.848 51.3466 192.464 51.3466 192C51.3466 191.536 51.2026 191.156 50.9146 190.86C50.6346 190.556 50.2826 190.404 49.8586 190.404C49.4266 190.404 49.0666 190.556 48.7786 190.86C48.4986 191.156 48.3586 191.536 48.3586 192C48.3586 192.464 48.4986 192.848 48.7786 193.152C49.0666 193.448 49.4266 193.596 49.8586 193.596ZM54.2002 195V189H55.8442V189.96C55.9482 189.664 56.1362 189.42 56.4082 189.228C56.6882 189.028 56.9962 188.928 57.3322 188.928C57.5402 188.928 57.7242 188.952 57.8842 189V190.668C57.6202 190.58 57.3722 190.536 57.1402 190.536C56.7482 190.536 56.4322 190.68 56.1922 190.968C55.9602 191.248 55.8442 191.636 55.8442 192.132V195H54.2002ZM61.1596 195.132C60.3676 195.132 59.6996 194.824 59.1556 194.208C58.6116 193.592 58.3396 192.856 58.3396 192C58.3396 191.144 58.6116 190.408 59.1556 189.792C59.6996 189.176 60.3676 188.868 61.1596 188.868C61.5436 188.868 61.8876 188.948 62.1916 189.108C62.4956 189.268 62.7276 189.456 62.8876 189.672V186H64.5316V195H62.8876V194.328C62.7276 194.544 62.4956 194.732 62.1916 194.892C61.8876 195.052 61.5436 195.132 61.1596 195.132ZM60.4036 193.176C60.6836 193.48 61.0516 193.632 61.5076 193.632C61.9636 193.632 62.3276 193.48 62.5996 193.176C62.8796 192.872 63.0196 192.48 63.0196 192C63.0196 191.52 62.8796 191.128 62.5996 190.824C62.3276 190.52 61.9636 190.368 61.5076 190.368C61.0516 190.368 60.6836 190.52 60.4036 190.824C60.1316 191.128 59.9956 191.52 59.9956 192C59.9956 192.48 60.1316 192.872 60.4036 193.176ZM68.5659 195.132C67.7739 195.132 67.1059 194.824 66.5619 194.208C66.0179 193.592 65.7459 192.856 65.7459 192C65.7459 191.144 66.0179 190.408 66.5619 189.792C67.1059 189.176 67.7739 188.868 68.5659 188.868C68.9499 188.868 69.2939 188.948 69.5979 189.108C69.9019 189.268 70.1339 189.456 70.2939 189.672V189H71.9379V195H70.2939V194.328C70.1339 194.544 69.9019 194.732 69.5979 194.892C69.2939 195.052 68.9499 195.132 68.5659 195.132ZM67.8099 193.176C68.0899 193.48 68.4579 193.632 68.9139 193.632C69.3699 193.632 69.7339 193.48 70.0059 193.176C70.2859 192.872 70.4259 192.48 70.4259 192C70.4259 191.52 70.2859 191.128 70.0059 190.824C69.7339 190.52 69.3699 190.368 68.9139 190.368C68.4579 190.368 68.0899 190.52 67.8099 190.824C67.5379 191.128 67.4019 191.52 67.4019 192C67.4019 192.48 67.5379 192.872 67.8099 193.176ZM73.5361 195V189H75.1801V189.684C75.5481 189.14 76.1201 188.868 76.8961 188.868C77.6161 188.868 78.1801 189.108 78.5881 189.588C79.0041 190.06 79.2121 190.692 79.2121 191.484V195H77.5681V191.76C77.5681 191.32 77.4761 190.98 77.2921 190.74C77.1081 190.492 76.8481 190.368 76.5121 190.368C76.1121 190.368 75.7881 190.512 75.5401 190.8C75.3001 191.088 75.1801 191.512 75.1801 192.072V195H73.5361Z" fill="white"/>
<path d="M285.937 195L284.065 190.476L282.193 195H280.561L278.509 186.48H280.357L281.653 192.144L284.065 186.336L286.477 192.144L287.773 186.48H289.621L287.569 195H285.937ZM290.265 195V189H291.909V189.96C292.013 189.664 292.201 189.42 292.473 189.228C292.753 189.028 293.061 188.928 293.397 188.928C293.605 188.928 293.789 188.952 293.949 189V190.668C293.685 190.58 293.437 190.536 293.205 190.536C292.813 190.536 292.497 190.68 292.257 190.968C292.025 191.248 291.909 191.636 291.909 192.132V195H290.265ZM297.224 195.132C296.432 195.132 295.764 194.824 295.22 194.208C294.676 193.592 294.404 192.856 294.404 192C294.404 191.144 294.676 190.408 295.22 189.792C295.764 189.176 296.432 188.868 297.224 188.868C297.608 188.868 297.952 188.948 298.256 189.108C298.56 189.268 298.792 189.456 298.952 189.672V189H300.596V195H298.952V194.328C298.792 194.544 298.56 194.732 298.256 194.892C297.952 195.052 297.608 195.132 297.224 195.132ZM296.468 193.176C296.748 193.48 297.116 193.632 297.572 193.632C298.028 193.632 298.392 193.48 298.664 193.176C298.944 192.872 299.084 192.48 299.084 192C299.084 191.52 298.944 191.128 298.664 190.824C298.392 190.52 298.028 190.368 297.572 190.368C297.116 190.368 296.748 190.52 296.468 190.824C296.196 191.128 296.06 191.52 296.06 192C296.06 192.48 296.196 192.872 296.468 193.176ZM305.098 195.072C304.426 195.072 303.874 194.888 303.442 194.52C303.018 194.144 302.806 193.604 302.806 192.9V190.44H301.594V189H302.806V187.332H304.45V189H306.142V190.44H304.45V192.576C304.45 192.944 304.53 193.208 304.69 193.368C304.85 193.52 305.11 193.596 305.47 193.596C305.726 193.596 305.95 193.56 306.142 193.488V194.94C305.854 195.028 305.506 195.072 305.098 195.072ZM308.959 195H307.315V186H308.959V189.684C309.327 189.14 309.899 188.868 310.675 188.868C311.395 188.868 311.959 189.108 312.367 189.588C312.783 190.06 312.991 190.692 312.991 191.484V195H311.347V191.76C311.347 191.32 311.255 190.98 311.071 190.74C310.887 190.492 310.627 190.368 310.291 190.368C309.891 190.368 309.567 190.512 309.319 190.8C309.079 191.088 308.959 191.512 308.959 192.072V195Z" fill="white"/>
<path d="M363.09 187.308C363.658 187.852 363.942 188.532 363.942 189.348C363.942 190.164 363.658 190.848 363.09 191.4C362.522 191.944 361.81 192.216 360.954 192.216H359.862V195H358.122V186.48H360.954C361.81 186.48 362.522 186.756 363.09 187.308ZM361.89 190.236C362.13 190.004 362.25 189.708 362.25 189.348C362.25 188.988 362.13 188.692 361.89 188.46C361.65 188.228 361.33 188.112 360.93 188.112H359.862V190.584H360.93C361.33 190.584 361.65 190.468 361.89 190.236ZM364.938 195V189H366.582V189.96C366.686 189.664 366.874 189.42 367.146 189.228C367.426 189.028 367.734 188.928 368.07 188.928C368.278 188.928 368.462 188.952 368.622 189V190.668C368.358 190.58 368.11 190.536 367.878 190.536C367.486 190.536 367.17 190.68 366.93 190.968C366.698 191.248 366.582 191.636 366.582 192.132V195H364.938ZM370.489 188.016C370.209 188.016 369.965 187.916 369.757 187.716C369.549 187.508 369.445 187.26 369.445 186.972C369.445 186.684 369.549 186.44 369.757 186.24C369.965 186.032 370.209 185.928 370.489 185.928C370.785 185.928 371.033 186.032 371.233 186.24C371.441 186.44 371.545 186.684 371.545 186.972C371.545 187.26 371.441 187.508 371.233 187.716C371.033 187.916 370.785 188.016 370.489 188.016ZM369.673 195V189H371.317V195H369.673ZM375.212 195.132C374.444 195.132 373.808 194.94 373.304 194.556C372.8 194.172 372.532 193.684 372.5 193.092H374.216C374.248 193.348 374.36 193.544 374.552 193.68C374.744 193.808 374.98 193.872 375.26 193.872C375.78 193.872 376.04 193.712 376.04 193.392C376.04 193.232 375.98 193.112 375.86 193.032C375.748 192.944 375.556 192.864 375.284 192.792L374.156 192.504C373.644 192.368 373.26 192.14 373.004 191.82C372.756 191.492 372.632 191.1 372.632 190.644C372.632 190.124 372.848 189.7 373.28 189.372C373.72 189.036 374.308 188.868 375.044 188.868C375.716 188.868 376.276 189.04 376.724 189.384C377.172 189.72 377.42 190.18 377.468 190.764H375.812C375.74 190.356 375.476 190.152 375.02 190.152C374.804 190.152 374.632 190.192 374.504 190.272C374.376 190.352 374.312 190.464 374.312 190.608C374.312 190.872 374.54 191.056 374.996 191.16L376.052 191.448C376.636 191.592 377.06 191.82 377.324 192.132C377.588 192.436 377.72 192.828 377.72 193.308C377.72 193.86 377.484 194.304 377.012 194.64C376.548 194.968 375.948 195.132 375.212 195.132ZM386.467 195V191.796C386.467 190.844 386.155 190.368 385.531 190.368C385.171 190.368 384.883 190.504 384.667 190.776C384.459 191.048 384.347 191.452 384.331 191.988V195H382.687V191.796C382.687 190.844 382.375 190.368 381.751 190.368C381.383 190.368 381.091 190.512 380.875 190.8C380.659 191.088 380.551 191.512 380.551 192.072V195H378.907V189H380.551V189.684C380.927 189.14 381.459 188.868 382.147 188.868C382.987 188.868 383.607 189.236 384.007 189.972C384.183 189.628 384.447 189.36 384.799 189.168C385.151 188.968 385.507 188.868 385.867 188.868C386.579 188.868 387.131 189.104 387.523 189.576C387.915 190.048 388.111 190.696 388.111 191.52V195H386.467Z" fill="white"/>
<path d="M122.922 192.24V190.812H124.734V189H126.162V190.812H127.962V192.24H126.162V194.052H124.734V192.24H122.922ZM129.916 195V188.1H128.116L129.316 186.48H131.56V195H129.916Z" fill="white"/>
<path d="M174.127 192.432V190.848H177.559V192.432H174.127ZM183.132 195L180.684 192.24V195H179.04V186H180.684V191.208L182.628 189H184.608L182.232 191.7L185.16 195H183.132ZM186.524 188.016C186.244 188.016 186 187.916 185.792 187.716C185.584 187.508 185.48 187.26 185.48 186.972C185.48 186.684 185.584 186.44 185.792 186.24C186 186.032 186.244 185.928 186.524 185.928C186.82 185.928 187.068 186.032 187.268 186.24C187.476 186.44 187.58 186.684 187.58 186.972C187.58 187.26 187.476 187.508 187.268 187.716C187.068 187.916 186.82 188.016 186.524 188.016ZM185.708 195V189H187.352V195H185.708ZM191.367 195.132C190.575 195.132 189.907 194.824 189.363 194.208C188.819 193.592 188.547 192.856 188.547 192C188.547 191.144 188.819 190.408 189.363 189.792C189.907 189.176 190.575 188.868 191.367 188.868C191.751 188.868 192.095 188.948 192.399 189.108C192.703 189.268 192.935 189.456 193.095 189.672V186H194.739V195H193.095V194.328C192.935 194.544 192.703 194.732 192.399 194.892C192.095 195.052 191.751 195.132 191.367 195.132ZM190.611 193.176C190.891 193.48 191.259 193.632 191.715 193.632C192.171 193.632 192.535 193.48 192.807 193.176C193.087 192.872 193.227 192.48 193.227 192C193.227 191.52 193.087 191.128 192.807 190.824C192.535 190.52 192.171 190.368 191.715 190.368C191.259 190.368 190.891 190.52 190.611 190.824C190.339 191.128 190.203 191.52 190.203 192C190.203 192.48 190.339 192.872 190.611 193.176ZM198.653 195.132C197.885 195.132 197.249 194.94 196.745 194.556C196.241 194.172 195.973 193.684 195.941 193.092H197.657C197.689 193.348 197.801 193.544 197.993 193.68C198.185 193.808 198.421 193.872 198.701 193.872C199.221 193.872 199.481 193.712 199.481 193.392C199.481 193.232 199.421 193.112 199.301 193.032C199.189 192.944 198.997 192.864 198.725 192.792L197.597 192.504C197.085 192.368 196.701 192.14 196.445 191.82C196.197 191.492 196.073 191.1 196.073 190.644C196.073 190.124 196.289 189.7 196.721 189.372C197.161 189.036 197.749 188.868 198.485 188.868C199.157 188.868 199.717 189.04 200.165 189.384C200.613 189.72 200.861 190.18 200.909 190.764H199.253C199.181 190.356 198.917 190.152 198.461 190.152C198.245 190.152 198.073 190.192 197.945 190.272C197.817 190.352 197.753 190.464 197.753 190.608C197.753 190.872 197.981 191.056 198.437 191.16L199.493 191.448C200.077 191.592 200.501 191.82 200.765 192.132C201.029 192.436 201.161 192.828 201.161 193.308C201.161 193.86 200.925 194.304 200.453 194.64C199.989 194.968 199.389 195.132 198.653 195.132Z" fill="white"/>
</g>
</g>
<defs>
<filter id="filter0_d" x="-22" y="222" width="541" height="181" filterUnits="userSpaceOnUse" color-interpolation-filters="sRGB">
<feFlood flood-opacity="0" result="BackgroundImageFix"/>
<feColorMatrix in="SourceAlpha" type="matrix" values="0 0 0 0 0 0 0 0 0 0 0 0 0 0 0 0 0 0 127 0"/>
<feOffset dy="40"/>
<feGaussianBlur stdDeviation="29"/>
<feColorMatrix type="matrix" values="0 0 0 0 0.0588235 0 0 0 0 0.0627451 0 0 0 0 0.0980392 0 0 0 0.295367 0"/>
<feBlend mode="normal" in2="BackgroundImageFix" result="effect1_dropShadow"/>
<feBlend mode="normal" in="SourceGraphic" in2="effect1_dropShadow" result="shape"/>
</filter>
<filter id="filter1_d" x="-22" y="58" width="541" height="181" filterUnits="userSpaceOnUse" color-interpolation-filters="sRGB">
<feFlood flood-opacity="0" result="BackgroundImageFix"/>
<feColorMatrix in="SourceAlpha" type="matrix" values="0 0 0 0 0 0 0 0 0 0 0 0 0 0 0 0 0 0 127 0"/>
<feOffset dy="40"/>
<feGaussianBlur stdDeviation="29"/>
<feColorMatrix type="matrix" values="0 0 0 0 0.0588235 0 0 0 0 0.0627451 0 0 0 0 0.0980392 0 0 0 0.295367 0"/>
<feBlend mode="normal" in2="BackgroundImageFix" result="effect1_dropShadow"/>
<feBlend mode="normal" in="SourceGraphic" in2="effect1_dropShadow" result="shape"/>
</filter>
<filter id="filter2_d" x="-58" y="140" width="541" height="181" filterUnits="userSpaceOnUse" color-interpolation-filters="sRGB">
<feFlood flood-opacity="0" result="BackgroundImageFix"/>
<feColorMatrix in="SourceAlpha" type="matrix" values="0 0 0 0 0 0 0 0 0 0 0 0 0 0 0 0 0 0 127 0"/>
<feOffset dy="40"/>
<feGaussianBlur stdDeviation="29"/>
<feColorMatrix type="matrix" values="0 0 0 0 0.0588235 0 0 0 0 0.0627451 0 0 0 0 0.0980392 0 0 0 0.295367 0"/>
<feBlend mode="normal" in2="BackgroundImageFix" result="effect1_dropShadow"/>
<feBlend mode="normal" in="SourceGraphic" in2="effect1_dropShadow" result="shape"/>
</filter>
<linearGradient id="paint0_linear" x1="69" y1="0" x2="69" y2="369" gradientUnits="userSpaceOnUse">
<stop stop-color="#302A6B"/>
<stop offset="1" stop-color="#2B215F"/>
</linearGradient>
<linearGradient id="paint1_linear" x1="54" y1="254" x2="54" y2="292" gradientUnits="userSpaceOnUse">
<stop stop-color="#5ABC3A"/>
<stop offset="1" stop-color="#52AA35"/>
</linearGradient>
<linearGradient id="paint2_linear" x1="142" y1="254" x2="142" y2="292" gradientUnits="userSpaceOnUse">
<stop stop-color="#5ABC3A"/>
<stop offset="1" stop-color="#52AA35"/>
</linearGradient>
<linearGradient id="paint3_linear" x1="194" y1="254" x2="194" y2="292" gradientUnits="userSpaceOnUse">
<stop stop-color="#5ABC3A"/>
<stop offset="1" stop-color="#52AA35"/>
</linearGradient>
<linearGradient id="paint4_linear" x1="54" y1="90" x2="54" y2="128" gradientUnits="userSpaceOnUse">
<stop stop-color="#5ABC3A"/>
<stop offset="1" stop-color="#52AA35"/>
</linearGradient>
<linearGradient id="paint5_linear" x1="142" y1="90" x2="142" y2="128" gradientUnits="userSpaceOnUse">
<stop stop-color="#5ABC3A"/>
<stop offset="1" stop-color="#52AA35"/>
</linearGradient>
<linearGradient id="paint6_linear" x1="18" y1="172" x2="18" y2="210" gradientUnits="userSpaceOnUse">
<stop stop-color="#5ABC3A"/>
<stop offset="1" stop-color="#52AA35"/>
</linearGradient>
<linearGradient id="paint7_linear" x1="106" y1="172" x2="106" y2="210" gradientUnits="userSpaceOnUse">
<stop stop-color="#5ABC3A"/>
<stop offset="1" stop-color="#52AA35"/>
</linearGradient>
<linearGradient id="paint8_linear" x1="158" y1="172" x2="158" y2="210" gradientUnits="userSpaceOnUse">
<stop stop-color="#E55966"/>
<stop offset="1" stop-color="#AD3643"/>
</linearGradient>
<clipPath id="clip0">
<rect width="499" height="369" fill="white"/>
</clipPath>
<clipPath id="clip1">
<rect width="425" height="65" fill="white" transform="translate(36 240)"/>
</clipPath>
<clipPath id="clip2">
<rect width="425" height="65" fill="white" transform="translate(0 158)"/>
</clipPath>
</defs>
</svg>
