<svg width="42" height="36" viewBox="0 0 42 36" fill="none" xmlns="http://www.w3.org/2000/svg">
<rect y="12" width="7" height="12" rx="3" fill="url(#paint0_linear)"/>
<rect x="35" y="12" width="7" height="12" rx="3" fill="url(#paint1_linear)"/>
<circle cx="21" cy="18" r="18" fill="url(#paint2_linear)"/>
<path fill-rule="evenodd" clip-rule="evenodd" d="M34 18.0001C34 20.1821 33.464 22.2341 32.513 24.0371C32.203 24.6241 31.603 25.0001 30.939 25.0001H11.061C10.398 25.0001 9.797 24.6241 9.488 24.0371C8.536 22.2341 8 20.1821 8 18.0001C8 15.8181 8.536 13.7661 9.488 11.9631C9.797 11.3761 10.398 11.0001 11.061 11.0001H30.939C31.603 11.0001 32.203 11.3761 32.513 11.9631C33.464 13.7661 34 15.8181 34 18.0001Z" fill="url(#paint3_linear)"/>
<rect x="15" y="15" width="3" height="6" rx="1.5" fill="#66FCDF"/>
<rect x="24" y="15" width="3" height="6" rx="1.5" fill="#66FCDF"/>
<defs>
<linearGradient id="paint0_linear" x1="0" y1="12" x2="0" y2="24" gradientUnits="userSpaceOnUse">
<stop stop-color="#9B76FE"/>
<stop offset="1" stop-color="#8351FF"/>
</linearGradient>
<linearGradient id="paint1_linear" x1="35" y1="12" x2="35" y2="24" gradientUnits="userSpaceOnUse">
<stop stop-color="#9B76FE"/>
<stop offset="1" stop-color="#8351FF"/>
</linearGradient>
<linearGradient id="paint2_linear" x1="3.21489" y1="0.429773" x2="3.21489" y2="36" gradientUnits="userSpaceOnUse">
<stop stop-color="#8978F3"/>
<stop offset="1" stop-color="#583DEB"/>
</linearGradient>
<linearGradient id="paint3_linear" x1="8" y1="11.0001" x2="8" y2="25.0001" gradientUnits="userSpaceOnUse">
<stop stop-color="#352D74"/>
<stop offset="1" stop-color="#181440"/>
</linearGradient>
</defs>
</svg>
