<svg width="47" height="43" viewBox="0 0 47 43" fill="none" xmlns="http://www.w3.org/2000/svg">
<rect x="27.1567" y="0.993896" width="20.9" height="36.1" rx="2.85" transform="rotate(45 27.1567 0.993896)" fill="url(#paint0_linear)"/>
<path fill-rule="evenodd" clip-rule="evenodd" d="M29.172 5.69616C28.059 6.80916 26.2545 6.80916 25.1415 5.69616L6.33244 24.5052C7.44544 25.6182 7.44544 27.4227 6.33245 28.5357L14.3935 36.5967C15.5065 35.4837 17.311 35.4837 18.424 36.5967L37.233 17.7877C36.12 16.6747 36.12 14.8702 37.233 13.7572L29.172 5.69616Z" fill="url(#paint1_linear)"/>
<ellipse cx="21.7826" cy="21.1465" rx="5.7" ry="4.75" transform="rotate(45 21.7826 21.1465)" fill="url(#paint2_linear)"/>
<rect x="46.6001" y="21.85" width="20.9" height="36.1" rx="2.85" transform="rotate(90 46.6001 21.85)" fill="url(#paint3_linear)"/>
<path fill-rule="evenodd" clip-rule="evenodd" d="M44.7002 26.6C43.1262 26.6 41.8502 25.324 41.8502 23.75L15.2502 23.75C15.2502 25.324 13.9742 26.6 12.4002 26.6V38C13.9742 38 15.2502 39.276 15.2502 40.85H41.8502C41.8502 39.276 43.1262 38 44.7002 38V26.6Z" fill="url(#paint4_linear)"/>
<ellipse cx="28.5503" cy="32.3" rx="5.7" ry="4.75" transform="rotate(90 28.5503 32.3)" fill="url(#paint5_linear)"/>
<defs>
<linearGradient id="paint0_linear" x1="27.1567" y1="0.993896" x2="27.1567" y2="37.0939" gradientUnits="userSpaceOnUse">
<stop stop-color="#9A75FE"/>
<stop offset="1" stop-color="#8351FF"/>
</linearGradient>
<linearGradient id="paint1_linear" x1="27.1831" y1="3.70731" x2="4.44332" y2="26.4471" gradientUnits="userSpaceOnUse">
<stop stop-color="#8978F3"/>
<stop offset="1" stop-color="#593EEB"/>
</linearGradient>
<linearGradient id="paint2_linear" x1="16.0826" y1="16.3965" x2="16.0826" y2="25.8965" gradientUnits="userSpaceOnUse">
<stop stop-color="#7DFDE4"/>
<stop offset="1" stop-color="#2EFBD3"/>
</linearGradient>
<linearGradient id="paint3_linear" x1="46.6001" y1="21.85" x2="46.6001" y2="57.95" gradientUnits="userSpaceOnUse">
<stop stop-color="#9A75FE"/>
<stop offset="1" stop-color="#8351FF"/>
</linearGradient>
<linearGradient id="paint4_linear" x1="44.7002" y1="23.7873" x2="12.5412" y2="23.7873" gradientUnits="userSpaceOnUse">
<stop stop-color="#8978F3"/>
<stop offset="1" stop-color="#593EEB"/>
</linearGradient>
<linearGradient id="paint5_linear" x1="22.8503" y1="27.55" x2="22.8503" y2="37.05" gradientUnits="userSpaceOnUse">
<stop stop-color="#7DFDE4"/>
<stop offset="1" stop-color="#2EFBD3"/>
</linearGradient>
</defs>
</svg>
