<svg width="37" height="37" viewBox="0 0 37 37" fill="none" xmlns="http://www.w3.org/2000/svg">
<path fill-rule="evenodd" clip-rule="evenodd" d="M36.5645 18.2803C36.5645 18.8578 36.5365 19.4286 36.484 19.9921C35.623 29.2881 27.8005 36.5643 18.2805 36.5643C8.764 36.5643 0.9415 29.2881 0.0805 19.9921C0.028 19.4286 0 18.8578 0 18.2803H36.5645Z" fill="url(#paint0_linear)"/>
<path fill-rule="evenodd" clip-rule="evenodd" d="M36.5645 18.2803H0C0 17.7031 0.028 17.1358 0.0805 16.5726C0.9415 7.27977 8.764 0.00012207 18.2805 0.00012207C27.8005 0.00012207 35.623 7.27977 36.484 16.5726C36.5365 17.1358 36.5645 17.7031 36.5645 18.2803Z" fill="url(#paint1_linear)"/>
<path fill-rule="evenodd" clip-rule="evenodd" d="M36.5645 18.2803C36.5645 18.8578 36.5365 19.4286 36.484 19.9921H0.0805C0.028 19.4286 0 18.8578 0 18.2803C0 17.7031 0.028 17.1358 0.0805 16.5726H36.484C36.5365 17.1358 36.5645 17.7031 36.5645 18.2803Z" fill="url(#paint2_linear)"/>
<path fill-rule="evenodd" clip-rule="evenodd" d="M27.4221 18.2823C27.4221 23.3304 23.3299 27.4226 18.2819 27.4226C13.2338 27.4226 9.1416 23.3304 9.1416 18.2823C9.1416 13.2339 13.2338 9.14209 18.2819 9.14209C23.3299 9.14209 27.4221 13.2339 27.4221 18.2823Z" fill="url(#paint3_linear)"/>
<path fill-rule="evenodd" clip-rule="evenodd" d="M24.2928 18.2822C24.2928 21.6016 21.6016 24.2931 18.2819 24.2931C14.9621 24.2931 12.271 21.6016 12.271 18.2822C12.271 14.9625 14.9621 12.271 18.2819 12.271C21.6016 12.271 24.2928 14.9625 24.2928 18.2822Z" fill="white"/>
<path fill-rule="evenodd" clip-rule="evenodd" d="M20.6692 18.2822C20.6692 19.6007 19.6003 20.6692 18.2819 20.6692C16.9634 20.6692 15.8945 19.6007 15.8945 18.2822C15.8945 16.9634 16.9634 15.8949 18.2819 15.8949C19.6003 15.8949 20.6692 16.9634 20.6692 18.2822Z" fill="#8877F3"/>
<defs>
<linearGradient id="paint0_linear" x1="0" y1="18.2803" x2="0" y2="36.5643" gradientUnits="userSpaceOnUse">
<stop stop-color="#7AFDE3"/>
<stop offset="1" stop-color="#30FBD4"/>
</linearGradient>
<linearGradient id="paint1_linear" x1="0" y1="0.00012207" x2="0" y2="18.2803" gradientUnits="userSpaceOnUse">
<stop stop-color="#8978F3"/>
<stop offset="1" stop-color="#593EEB"/>
</linearGradient>
<linearGradient id="paint2_linear" x1="36.5645" y1="16.5726" x2="0" y2="16.5726" gradientUnits="userSpaceOnUse">
<stop stop-color="#312A6E"/>
<stop offset="1" stop-color="#1A1543"/>
</linearGradient>
<linearGradient id="paint3_linear" x1="9.1416" y1="9.14209" x2="9.1416" y2="27.4226" gradientUnits="userSpaceOnUse">
<stop stop-color="#31296D"/>
<stop offset="1" stop-color="#1A1543"/>
</linearGradient>
</defs>
</svg>
